<svg xmlns="http://www.w3.org/2000/svg" version="1.1" xmlns:xlink="http://www.w3.org/1999/xlink" xmlns:svgjs="http://svgjs.dev/svgjs" width="1000" height="398" viewBox="0 0 1000 398"><g transform="matrix(1,0,0,1,-0.6060472412896161,0.05259929668207519)"><svg viewBox="0 0 396 158" data-background-color="#ffffff" preserveAspectRatio="xMidYMid meet" height="398" width="1000" xmlns="http://www.w3.org/2000/svg" xmlns:xlink="http://www.w3.org/1999/xlink"><g id="tight-bounds" transform="matrix(1,0,0,1,0.23999473339273436,-0.020881000968131502)"><svg viewBox="0 0 395.52 158.0417599237706" height="158.0417599237706" width="395.52"><g><svg viewBox="0 0 395.52 158.0417599237706" height="158.0417599237706" width="395.52"><g transform="matrix(1,0,0,1,0,110.28167223652179)"><svg viewBox="0 0 395.52 47.76008768724882" height="47.76008768724882" width="395.52"><g id="textblocktransform"><svg viewBox="0 0 395.52 47.76008768724882" height="47.76008768724882" width="395.52" id="textblock"><g><svg viewBox="0 0 395.52 47.76008768724882" height="47.76008768724882" width="395.52"><g transform="matrix(1,0,0,1,0,0)"><svg width="395.52" viewBox="0.45000001788139343 -32.45000076293945 273.67999267578125 33.04999923706055" height="47.76008768724882" data-palette-color="#233565"><path d="M6.25 0.2L6.65-1.95Q9.15-2.15 10.1-2.58 11.05-3 11.35-4.13 11.65-5.25 11.65-8.1L11.65-8.1 11.65-29.9Q7.4-29.75 5.88-29.43 4.35-29.1 3.8-27.98 3.25-26.85 2.8-23.6L2.8-23.6 0.45-23.4Q1.05-28.15 1.2-32.05L1.2-32.05 1.65-32.45 5.8-31.9 21.3-31.9 25.55-32.45 26-32.05Q26.15-27.95 26.75-23.6L26.75-23.6 24.4-23.4Q23.85-26.7 23.3-27.85 22.75-29 21.35-29.35 19.95-29.7 15.95-29.9L15.95-29.9Q15.65-26.9 15.4-19.3 15.15-11.7 15.15-5.6L15.15-5.6Q15.15-3.75 15.8-2.98 16.45-2.2 18-2.2L18-2.2Q19.5-2.2 20.75-2.35L20.75-2.35 20.9-2.15 20.45 0.15 18.8 0.1 13.1 0Q10.35 0 6.25 0.2L6.25 0.2ZM53.75-8.6L53.9-8.35Q53.05-4.3 52.55 0.05L52.55 0.05 52.3 0.35Q41.8 0 37.15 0L37.15 0Q33.45 0 30.2 0.5L30.2 0.5 30.5-1.8Q32.75-2.1 33.57-2.98 34.4-3.85 34.4-6L34.4-6 34.45-27Q34.45-28.6 34.07-29.15 33.7-29.7 32.6-29.7L32.6-29.7 30.9-29.6 30.8-29.8 31.15-32Q36.25-31.85 38.1-31.85L38.1-31.85Q44.05-31.85 47.35-31.98 50.65-32.1 53.1-32.45L53.1-32.45 53.25-32.15Q52.35-28.2 52.1-23.85L52.1-23.85 49.7-23.65 49.8-25.8Q49.8-27.55 49.35-28.23 48.9-28.9 47.4-29.13 45.9-29.35 42.15-29.35L42.15-29.35Q40.4-29.35 39.75-29.25 39.1-29.15 38.9-28.78 38.7-28.4 38.65-27.4L38.65-27.4 38.25-17.7 43.4-17.65Q45.35-17.65 49.5-18.2L49.5-18.2 49.7-17.95 49-15Q43.45-15.15 42-15.15L42-15.15Q40.35-15.15 38.15-14.8L38.15-14.8 37.95-5.25Q37.95-3.8 38.2-3.23 38.45-2.65 39.22-2.45 40-2.25 41.9-2.25L41.9-2.25Q46.1-2.25 47.87-2.65 49.65-3.05 50.4-4.25 51.15-5.45 51.55-8.35L51.55-8.35 53.75-8.6ZM72.8 0.6Q68.3 0.6 64.89-1.3 61.49-3.2 59.67-6.68 57.84-10.15 57.84-14.85L57.84-14.85Q57.84-19.85 60.09-23.88 62.34-27.9 66.32-30.18 70.3-32.45 75.3-32.45L75.3-32.45Q77.14-32.45 79.07-32.18 81-31.9 82.32-31.63 83.64-31.35 84-31.25L84-31.25 84.19-30.95Q84.09-30.65 83.87-29.5 83.64-28.35 83.37-26.5 83.09-24.65 82.94-22.6L82.94-22.6 80.55-22.4Q80.59-22.65 80.64-23.33 80.69-24 80.69-24.85L80.69-24.85Q80.69-29.5 73.34-29.5L73.34-29.5Q70.05-29.5 67.55-27.9 65.05-26.3 63.7-23.38 62.34-20.45 62.34-16.5L62.34-16.5Q62.34-12.15 63.77-8.85 65.19-5.55 67.8-3.73 70.39-1.9 73.8-1.9L73.8-1.9Q77.19-1.9 79.27-3.83 81.34-5.75 82.3-9.8L82.3-9.8 84.69-10Q84.55-9.25 84.05-6.68 83.55-4.1 83.34-1.85L83.34-1.85 83.05-1.4Q83.05-1.35 81.52-0.83 80-0.3 77.72 0.15 75.44 0.6 72.8 0.6L72.8 0.6ZM90.04 0.6L90.34-1.7Q92.64-2.15 93.44-3.03 94.24-3.9 94.24-6L94.24-6 94.29-27Q94.29-28.6 93.92-29.15 93.54-29.7 92.44-29.7L92.44-29.7 90.74-29.6 90.64-29.8 90.99-32Q91.64-32 91.99-31.95L91.99-31.95Q94.99-31.85 96.54-31.85L96.54-31.85Q98.64-31.85 101.89-32.3L101.89-32.3 101.69-30.05Q100.19-29.8 99.57-29.45 98.94-29.1 98.72-28.28 98.49-27.45 98.39-25.55L98.39-25.55 98.09-17.45 106.49-17.4Q109.64-17.4 113.89-17.9L113.89-17.9 113.94-27Q113.94-28.6 113.57-29.15 113.19-29.7 112.09-29.7L112.09-29.7Q111.39-29.7 110.39-29.6L110.39-29.6 110.29-29.8 110.64-32Q111.19-31.95 112.64-31.9 114.09-31.85 115.54-31.85L115.54-31.85Q117.94-31.85 121.54-32.3L121.54-32.3 121.34-30.05Q119.49-29.8 118.84-29.23 118.19-28.65 118.14-27.2L118.14-27.2Q117.84-21.55 117.64-15.08 117.44-8.6 117.44-5.3L117.44-5.3Q117.44-3.45 117.89-2.83 118.34-2.2 119.64-2.2L119.64-2.2Q120.24-2.2 121.89-2.35L121.89-2.35 121.99-2.15 121.54 0.15Q120.84 0.15 120.44 0.1L120.44 0.1Q117.14 0 115.39 0L115.39 0 109.64 0.1 110.09-2.15Q111.74-2.2 112.52-2.6 113.29-3 113.59-4.1 113.89-5.2 113.89-7.5L113.89-7.5 113.89-15.05 106.29-15.1Q105.04-15.05 102.79-14.93 100.54-14.8 97.99-14.55L97.99-14.55 97.79-5.6Q97.79-3.55 98.24-2.88 98.69-2.2 99.99-2.2L99.99-2.2Q100.59-2.2 102.24-2.35L102.24-2.35 102.34-2.15 101.89 0.15Q101.44 0.1 100.19 0.05 98.94 0 97.64 0L97.64 0Q95.34 0 92.72 0.2 90.09 0.4 90.04 0.6L90.04 0.6ZM145.69 0.6Q143.59 0.6 141.84 0.23 140.09-0.15 138.96-0.6 137.84-1.05 137.84-1.1L137.84-1.1 137.59-1.6Q137.64-1.9 137.79-3.1 137.94-4.3 138.06-6.23 138.19-8.15 138.19-10.3L138.19-10.3 140.44-10.55Q140.44-6.8 140.94-5 141.44-3.2 142.79-2.53 144.14-1.85 146.94-1.85L146.94-1.85Q150.09-1.85 151.99-3.33 153.89-4.8 153.89-7.35L153.89-7.35Q153.89-8.85 152.86-10.05 151.84-11.25 150.44-12.1 149.04-12.95 146.29-14.4L146.29-14.4Q143.69-15.75 142.04-16.88 140.39-18 139.26-19.55 138.14-21.1 138.14-23.15L138.14-23.15Q138.14-25.75 139.66-27.88 141.19-30 143.81-31.23 146.44-32.45 149.64-32.45L149.64-32.45Q151.64-32.45 153.34-32.18 155.04-31.9 156.04-31.6 157.04-31.3 157.29-31.2L157.29-31.2 157.44-30.9Q157.39-30.6 157.19-29.5 156.99-28.4 156.74-26.45 156.49-24.5 156.34-22.45L156.34-22.45 154.39-22.25 154.09-22.5Q154.14-22.7 154.19-23.43 154.24-24.15 154.24-25.1L154.24-25.1Q154.24-27.75 152.94-28.75 151.64-29.75 148.29-29.75L148.29-29.75Q145.54-29.75 143.76-28.38 141.99-27 141.99-24.95L141.99-24.95Q141.99-22.95 143.71-21.48 145.44-20 148.79-18.25L148.79-18.25Q152.04-16.6 153.74-15.53 155.44-14.45 156.74-12.85 158.04-11.25 158.04-9.15L158.04-9.15Q158.04-6.35 156.46-4.13 154.89-1.9 152.09-0.65 149.29 0.6 145.69 0.6L145.69 0.6ZM164.39 0.4L164.74-1.9Q166.94-2.3 167.64-3.08 168.34-3.85 168.34-6L168.34-6 168.39-27Q168.39-28.6 168.01-29.15 167.64-29.7 166.54-29.7L166.54-29.7Q166.04-29.7 165.54-29.65 165.04-29.6 164.84-29.6L164.84-29.6 164.74-29.8 165.09-32Q165.69-31.95 167.34-31.9 168.99-31.85 170.64-31.85L170.64-31.85Q172.19-31.85 174.16-31.93 176.14-32 176.94-32.05L176.94-32.05Q182.14-32.05 184.89-29.75 187.64-27.45 187.64-23.15L187.64-23.15Q187.64-20.35 186.01-17.82 184.39-15.3 181.74-13.75 179.09-12.2 176.19-12.2L176.19-12.2 171.99-12.2 171.89-7.3Q171.89-4.9 172.04-3.88 172.19-2.85 172.61-2.53 173.04-2.2 174.09-2.2L174.09-2.2Q174.94-2.2 175.71-2.25 176.49-2.3 176.79-2.35L176.79-2.35 176.89-2.15 176.44 0.15Q175.94 0.1 174.61 0.05 173.29 0 171.84 0L171.84 0Q169.84 0 167.16 0.15 164.49 0.3 164.39 0.4L164.39 0.4ZM177.39-14.4Q180.39-14.9 181.91-16.85 183.44-18.8 183.44-22.2L183.44-22.2Q183.44-26.05 181.16-27.83 178.89-29.6 174.04-29.6L174.04-29.6Q173.14-29.6 172.94-29.5 172.74-29.4 172.69-28.9L172.69-28.9Q172.24-22.55 172.09-15.15L172.09-15.15 177.39-14.4ZM204.13 0.5L203.98 0.15 204.18-1.8Q206.73-2 207.68-2.4 208.63-2.8 208.63-3.7L208.63-3.7Q208.63-4.7 208.18-6.1L208.18-6.1 206.53-11.55Q205.33-11.6 201.33-11.6L201.33-11.6Q198.93-11.6 195.88-11.2L195.88-11.2 194.03-6Q193.58-4.65 193.58-4.05L193.58-4.05Q193.58-2.95 194.28-2.48 194.98-2 196.58-2L196.58-2 199.43-2 199.53-1.8 199.23 0.35Q198.63 0.3 196.48 0.15 194.33 0 192.28 0L192.28 0Q190.43 0 188.86 0.05 187.28 0.1 186.78 0.15L186.78 0.15 187.18-2.2Q188.58-2.35 189.43-3.18 190.28-4 191.08-6.05L191.08-6.05 200.83-31.6 203.98-32.45 204.38-32.45Q204.68-31.25 205.91-26.9 207.13-22.55 208.91-16.6 210.68-10.65 212.33-5.65L212.33-5.65Q212.93-3.8 213.93-3.05 214.93-2.3 217.13-2.1L217.13-2.1 217.23-1.9 216.88 0.15Q216.28 0.15 214.71 0.08 213.13 0 211.58 0L211.58 0Q209.18 0 206.96 0.2 204.73 0.4 204.13 0.5L204.13 0.5ZM196.78-13.65L201.18-13.65Q202.98-13.65 205.83-13.9L205.83-13.9 201.88-27 201.53-27 196.78-13.65ZM233.18 0.6Q228.68 0.6 225.28-1.3 221.88-3.2 220.06-6.68 218.23-10.15 218.23-14.85L218.23-14.85Q218.23-19.85 220.48-23.88 222.73-27.9 226.71-30.18 230.68-32.45 235.68-32.45L235.68-32.45Q237.53-32.45 239.46-32.18 241.38-31.9 242.71-31.63 244.03-31.35 244.38-31.25L244.38-31.25 244.58-30.95Q244.48-30.65 244.26-29.5 244.03-28.35 243.76-26.5 243.48-24.65 243.33-22.6L243.33-22.6 240.93-22.4Q240.98-22.65 241.03-23.33 241.08-24 241.08-24.85L241.08-24.85Q241.08-29.5 233.73-29.5L233.73-29.5Q230.43-29.5 227.93-27.9 225.43-26.3 224.08-23.38 222.73-20.45 222.73-16.5L222.73-16.5Q222.73-12.15 224.16-8.85 225.58-5.55 228.18-3.73 230.78-1.9 234.18-1.9L234.18-1.9Q237.58-1.9 239.66-3.83 241.73-5.75 242.68-9.8L242.68-9.8 245.08-10Q244.93-9.25 244.43-6.68 243.93-4.1 243.73-1.85L243.73-1.85 243.43-1.4Q243.43-1.35 241.91-0.83 240.38-0.3 238.11 0.15 235.83 0.6 233.18 0.6L233.18 0.6ZM273.98-8.6L274.13-8.35Q273.28-4.3 272.78 0.05L272.78 0.05 272.53 0.35Q262.03 0 257.38 0L257.38 0Q253.68 0 250.43 0.5L250.43 0.5 250.73-1.8Q252.98-2.1 253.8-2.98 254.63-3.85 254.63-6L254.63-6 254.68-27Q254.68-28.6 254.3-29.15 253.93-29.7 252.83-29.7L252.83-29.7 251.13-29.6 251.03-29.8 251.38-32Q256.48-31.85 258.33-31.85L258.33-31.85Q264.28-31.85 267.58-31.98 270.88-32.1 273.33-32.45L273.33-32.45 273.48-32.15Q272.58-28.2 272.33-23.85L272.33-23.85 269.93-23.65 270.03-25.8Q270.03-27.55 269.58-28.23 269.13-28.9 267.63-29.13 266.13-29.35 262.38-29.35L262.38-29.35Q260.63-29.35 259.98-29.25 259.33-29.15 259.13-28.78 258.93-28.4 258.88-27.4L258.88-27.4 258.48-17.7 263.63-17.65Q265.58-17.65 269.73-18.2L269.73-18.2 269.93-17.95 269.23-15Q263.68-15.15 262.23-15.15L262.23-15.15Q260.58-15.15 258.38-14.8L258.38-14.8 258.18-5.25Q258.18-3.8 258.43-3.23 258.68-2.65 259.45-2.45 260.23-2.25 262.13-2.25L262.13-2.25Q266.33-2.25 268.1-2.65 269.88-3.05 270.63-4.25 271.38-5.45 271.78-8.35L271.78-8.35 273.98-8.6Z" opacity="1" transform="matrix(1,0,0,1,0,0)" fill="#233565" class="wordmark-text-0" data-fill-palette-color="primary" id="text-0"></path></svg></g></svg></g></svg></g></svg></g><g transform="matrix(1,0,0,1,148.82192538046036,0)"><svg viewBox="0 0 97.87614923907928 99.00666177566683" height="99.00666177566683" width="97.87614923907928"><g><svg xmlns="http://www.w3.org/2000/svg" xmlns:xlink="http://www.w3.org/1999/xlink" version="1.1" x="0" y="0" viewBox="3.435819625854492 4.255000114440918 88.2941665649414 89.31400299072266" enable-background="new 0 0 100 100" xml:space="preserve" height="99.00666177566683" width="97.87614923907928" class="icon-icon-0" data-fill-palette-color="accent" id="icon-0"><path d="M84.554 4.255c-3.956 0-7.176 3.219-7.176 7.174 0 0.387 0.039 0.765 0.099 1.135-4.092 2.764-9.443 7-15.568 12.325-4.184-1.993-8.861-3.113-13.796-3.113-4.216 0-8.241 0.823-11.934 2.303-8.546-4.33-15.099-4.867-18.489-1.478-3.615 3.615-2.559 10.319 1.195 17.912-1.891 4.094-2.954 8.646-2.954 13.445 0 4.956 1.127 9.652 3.138 13.851C0.588 89.162 3.108 91.712 4.198 92.802c0.469 0.469 1.055 0.767 1.897 0.767 1.784 0 4.716-1.335 10.114-5.214 3.358-2.414 7.331-5.58 11.733-9.347 5.522 4.455 12.538 7.131 20.169 7.131 5.171 0 10.056-1.233 14.39-3.409 3.422 1.423 6.504 2.168 9.096 2.168 2.577 0 4.677-0.725 6.17-2.218 3.033-3.033 2.954-8.486-0.202-15.778 1.748-3.965 2.728-8.34 2.728-12.943 0-7.611-2.661-14.608-7.095-20.124 5.15-5.988 9.264-11.255 11.862-15.254 3.721-0.262 6.67-3.365 6.67-7.15C91.73 7.474 88.511 4.255 84.554 4.255zM68.88 33.851c-5.615 6.406-12.317 13.548-19.557 20.787-1.203 1.202-2.43 2.414-3.659 3.618-1.404-0.985-3.109-1.569-4.951-1.569-1.909 0-3.67 0.63-5.102 1.681-5.973-6.453-10.321-12.584-13.106-17.84 4.847-9.204 14.504-15.497 25.608-15.497C56.256 25.03 63.617 28.417 68.88 33.851zM35.322 65.33c0-2.973 2.418-5.39 5.391-5.39 2.972 0 5.39 2.417 5.39 5.39 0 2.972-2.418 5.389-5.39 5.389C37.741 70.719 35.322 68.302 35.322 65.33zM19.991 24.902c1.997-1.996 6.534-1.603 12.413 0.984-4.737 2.662-8.735 6.486-11.606 11.085C18.316 31.162 18.081 26.812 19.991 24.902zM33.389 60.761c-0.832 1.326-1.32 2.889-1.32 4.569 0 1.666 0.483 3.22 1.304 4.542-1.906 1.731-3.707 3.335-5.405 4.817-5.411-5.26-8.783-12.608-8.783-20.731 0-3.423 0.602-6.707 1.697-9.756C24.099 49.713 28.496 55.486 33.389 60.761zM6.826 90.183c0.652-2.084 4.084-7.877 13.913-19.329 1.348 2.176 2.946 4.18 4.756 5.971C15.18 85.626 9.106 89.5 6.826 90.183zM48.112 82.885c-6.647 0-12.774-2.26-17.665-6.044 1.661-1.451 3.373-2.979 5.129-4.575 1.438 1.066 3.211 1.707 5.136 1.707 1.897 0 3.649-0.623 5.076-1.663 4.52 3.62 8.853 6.503 12.835 8.59C55.362 82.176 51.82 82.885 48.112 82.885zM75.468 80.378c-1.517 1.516-4.78 1.675-9.296 0.201 3.787-2.577 6.999-5.942 9.397-9.857C77.141 75.275 77.128 78.719 75.468 80.378zM77.038 53.958c0 10.755-5.903 20.15-14.637 25.135-4.148-1.89-9.028-4.896-14.386-9.16 0.844-1.336 1.341-2.911 1.341-4.603 0-1.752-0.526-3.379-1.424-4.741 1.24-1.215 2.479-2.438 3.691-3.65 7.151-7.151 13.796-14.222 19.403-20.606C74.791 41.216 77.038 47.327 77.038 53.958zM64.959 26.553c5.377-4.637 10.091-8.369 13.792-10.919 0.724 0.995 1.693 1.796 2.82 2.314-2.49 3.659-6.115 8.261-10.553 13.435C69.204 29.542 67.171 27.917 64.959 26.553zM84.554 15.352c-2.162 0-3.922-1.76-3.922-3.922 0-2.162 1.76-3.92 3.922-3.92 2.163 0 3.923 1.758 3.923 3.92C88.477 13.592 86.717 15.352 84.554 15.352z" fill="#f8c353" data-fill-palette-color="accent"></path><circle cx="84.426" cy="36.093" r="2.9" fill="#f8c353" data-fill-palette-color="accent"></circle><circle cx="63.021" cy="64.038" r="5.9" fill="#f8c353" data-fill-palette-color="accent"></circle><circle cx="42.211" cy="77.572" r="1.2" fill="#f8c353" data-fill-palette-color="accent"></circle><circle cx="70.555" cy="46.986" r="1.2" fill="#f8c353" data-fill-palette-color="accent"></circle><circle cx="40.963" cy="32.373" r="1.9" fill="#f8c353" data-fill-palette-color="accent"></circle><circle cx="24.738" cy="62.178" r="1.9" fill="#f8c353" data-fill-palette-color="accent"></circle><circle cx="42.425" cy="46.986" r="3.3" fill="#f8c353" data-fill-palette-color="accent"></circle></svg></g></svg></g><g></g></svg></g><defs></defs></svg><rect width="395.52" height="158.0417599237706" fill="none" stroke="none" visibility="hidden"></rect></g></svg></g></svg>